                                                                        S      1
,,11HEyepiece v2,11HEyepiece v2,7Hunknown,7Hunknown,32,38,7,99,15,,1.,2,G      1
2HMM,1,0.08,15H20200925.093801,0.01,10000.,7Hunknown,7Hunknown,11,0,15H2G      2
0180516.195102;                                                         G      3
     186       1                                                00000000D      1
     186            -187       1       0                               0D      2
     514       2                                                00010000D      3
     514                       2       1                               0D      4
     510       4                                                00010000D      5
     510            -189       1       1                               0D      6
     510       5                                                00010000D      7
     510            -189       1       1                               0D      8
     510       6                                                00010000D      9
     510            -189       1       1                               0D     10
     510       7                                                00010000D     11
     510            -189       1       1                               0D     12
     510       8                                                00010000D     13
     510            -189       1       1                               0D     14
     510       9                                                00010000D     15
     510            -189       1       1                               0D     16
     510      10                                                00010000D     17
     510            -189       1       1                               0D     18
     510      11                                                00010000D     19
     510            -189       1       1                               0D     20
     510      12                                                00010000D     21
     510            -189       1       1                               0D     22
     510      13                                                00010000D     23
     510            -191       1       1                               0D     24
     510      14                                                00010000D     25
     510            -189       1       1                               0D     26
     510      15                                                00010000D     27
     510            -193       1       1                               0D     28
     510      16                                                00010000D     29
     510            -193       1       1                               0D     30
     510      17                                                00010000D     31
     510            -189       1       1                               0D     32
     510      18                                                00010000D     33
     510            -189       1       1                               0D     34
     508      19                                                00010000D     35
     508                       2       1                               0D     36
     508      21                                                00010000D     37
     508                       1       1                               0D     38
     508      22                                                00010000D     39
     508                       1       1                               0D     40
     508      23                                                00010000D     41
     508                       2       1                               0D     42
     508      25                                                00010000D     43
     508                       2       1                               0D     44
     508      27                                                00010000D     45
     508                       2       1                               0D     46
     508      29                                                00010000D     47
     508                       2       1                               0D     48
     508      31                                                00010000D     49
     508                       1       1                               0D     50
     508      32                                                00010000D     51
     508                       1       1                               0D     52
     508      33                                                00010000D     53
     508                       2       1                               0D     54
     508      35                                                00010000D     55
     508                       1       1                               0D     56
     508      36                                                00010000D     57
     508                       1       1                               0D     58
     508      37                                                00010000D     59
     508                       2       1                               0D     60
     508      39                                                00010000D     61
     508                       1       1                               0D     62
     508      40                                                00010000D     63
     508                       1       1                               0D     64
     508      41                                                00010000D     65
     508                       1       1                               0D     66
     508      42                                                00010000D     67
     508                       1       1                               0D     68
     508      43                                                00010000D     69
     508                       2       1                               0D     70
     508      45                                                00010000D     71
     508                       1       1                               0D     72
     508      46                                                00010000D     73
     508                       1       1                               0D     74
     126      47                                                00010000D     75
     126       0               8       0                               0D     76
     126      55                                                00010000D     77
     126       0               5       0                               0D     78
     126      60                                                00010000D     79
     126       0               5       0                               0D     80
     126      65                                                00010000D     81
     126       0               8       0                               0D     82
     126      73                                                00010000D     83
     126       0               5       0                               0D     84
     126      78                                                00010000D     85
     126       0               5       0                               0D     86
     126      83                                                00010000D     87
     126       0               8       0                               0D     88
     126      91                                                00010000D     89
     126       0               5       0                               0D     90
     126      96                                                00010000D     91
     126       0               3       0                               0D     92
     126      99                                                00010000D     93
     126       0               6       0                               0D     94
     126     105                                                00010000D     95
     126       0               7       0                               0D     96
     126     112                                                00010000D     97
     126       0               4       0                               0D     98
     126     116                                                00010000D     99
     126       0               5       0                               0D    100
     126     121                                                00010000D    101
     126       0               7       0                               0D    102
     126     128                                                00010000D    103
     126       0               5       0                               0D    104
     126     133                                                00010000D    105
     126       0               3       0                               0D    106
     126     136                                                00010000D    107
     126       0               7       0                               0D    108
     126     143                                                00010000D    109
     126       0               6       0                               0D    110
     126     149                                                00010000D    111
     126       0               6       0                               0D    112
     126     155                                                00010000D    113
     126       0               3       0                               0D    114
     126     158                                                00010000D    115
     126       0               6       0                               0D    116
     126     164                                                00010000D    117
     126       0               7       0                               0D    118
     126     171                                                00010000D    119
     126       0               7       0                               0D    120
     126     178                                                00010000D    121
     126       0               6       0                               0D    122
     126     184                                                00010000D    123
     126       0               7       0                               0D    124
     126     191                                                00010000D    125
     126       0               4       0                               0D    126
     126     195                                                00010000D    127
     126       0               6       0                               0D    128
     126     201                                                00010000D    129
     126       0               7       0                               0D    130
     126     208                                                00010000D    131
     126       0               6       0                               0D    132
     126     214                                                00010000D    133
     126       0               7       0                               0D    134
     126     221                                                00010000D    135
     126       0               6       0                               0D    136
     126     227                                                00010000D    137
     126       0               7       0                               0D    138
     126     234                                                00010000D    139
     126       0               2       0                               0D    140
     126     236                                                00010000D    141
     126       0               6       0                               0D    142
     126     242                                                00010000D    143
     126       0               7       0                               0D    144
     126     249                                                00010000D    145
     126       0               3       0                               0D    146
     126     252                                                00010000D    147
     126       0               6       0                               0D    148
     126     258                                                00010000D    149
     126       0               7       0                               0D    150
     128     265                                                00010000D    151
     128       0    -189      19       0                               0D    152
     128     284                                                00010000D    153
     128       0    -189       4       0                               0D    154
     128     288                                                00010000D    155
     128       0    -189      13       0                               0D    156
     128     301                                                00010000D    157
     128       0    -189      18       0                               0D    158
     128     319                                                00010000D    159
     128       0    -189      15       0                               0D    160
     128     334                                                00010000D    161
     128       0    -189      14       0                               0D    162
     128     348                                                00010000D    163
     128       0    -189       4       0                               0D    164
     128     352                                                00010000D    165
     128       0    -189      18       0                               0D    166
     128     370                                                00010000D    167
     128       0    -189       4       0                               0D    168
     128     374                                                00010000D    169
     128       0    -191      13       0                               0D    170
     128     387                                                00010000D    171
     128       0    -189       3       0                               0D    172
     128     390                                                00010000D    173
     128       0    -193       4       0                               0D    174
     128     394                                                00010000D    175
     128       0    -193       4       0                               0D    176
     128     398                                                00010000D    177
     128       0    -189      15       0                               0D    178
     128     413                                                00010000D    179
     128       0    -189       4       0                               0D    180
     502     417                                                00010000D    181
     502                      10       1                               0D    182
     504     427                                                00010001D    183
     504                      11       1                               0D    184
     406     438                                                00000000D    185
     406                       1      15                               0D    186
     314     439                                                00000200D    187
     314                       2       0                               0D    188
     314     441                                                00000200D    189
     314                       2       0                               0D    190
     314     443                                                00000200D    191
     314                       2       0                               0D    192
     314     445                                                00000200D    193
     314                       2       0                               0D    194
186,3,1,0,0,1,185;                                                     1P      1
514,15,5,1,7,1,9,1,11,1,13,1,15,1,17,1,19,1,21,1,23,1,25,1,27,1,       3P      2
29,1,31,1,33,1;                                                        3P      3
510,151,1,1,35;                                                        5P      4
510,153,2,1,37,39;                                                     7P      5
510,155,1,1,41;                                                        9P      6
510,157,1,1,43;                                                       11P      7
510,159,1,1,45;                                                       13P      8
510,161,1,1,47;                                                       15P      9
510,163,2,1,49,51;                                                    17P     10
510,165,1,1,53;                                                       19P     11
510,167,2,1,55,57;                                                    21P     12
510,169,1,1,59;                                                       23P     13
510,171,2,1,61,63;                                                    25P     14
510,173,1,1,65;                                                       27P     15
510,175,1,1,67;                                                       29P     16
510,177,1,1,69;                                                       31P     17
510,179,2,1,71,73;                                                    33P     18
508,7,0,183,1,1,0,0,183,2,1,0,0,183,3,1,0,0,183,4,1,0,0,183,5,1,      35P     19
0,0,183,3,0,0,0,183,6,1,0;                                            35P     20
508,2,0,183,7,0,0,0,183,8,0,0;                                        37P     21
508,2,0,183,5,0,0,0,183,4,0,0;                                        39P     22
508,7,0,183,1,0,0,0,183,6,0,0,0,183,2,0,0,0,183,9,1,0,0,183,10,       41P     23
0,0,0,183,11,0,0,0,183,9,0,0;                                         41P     24
508,7,0,183,7,1,0,0,183,12,1,0,0,183,13,1,0,0,183,14,1,0,0,183,       43P     25
15,1,0,0,183,12,0,0,0,183,8,1,0;                                      43P     26
508,7,0,183,15,0,0,0,183,14,0,0,0,183,16,1,0,0,183,17,1,0,0,183,      45P     27
18,1,0,0,183,16,0,0,0,183,13,0,0;                                     45P     28
508,6,0,183,19,1,0,0,183,20,1,0,0,183,21,0,0,0,183,22,0,0,0,183,      47P     29
20,0,0,0,183,23,1,0;                                                  47P     30
508,2,0,183,24,0,0,0,183,25,0,0;                                      49P     31
508,2,0,183,21,1,0,0,183,22,1,0;                                      51P     32
508,6,0,183,24,1,0,0,183,26,1,0,0,183,27,0,0,0,183,28,0,0,0,183,      53P     33
26,0,0,0,183,25,1,0;                                                  53P     34
508,2,0,183,29,0,0,0,183,30,0,0;                                      55P     35
508,2,0,183,27,1,0,0,183,28,1,0;                                      57P     36
508,6,0,183,31,0,0,0,183,32,0,0,0,183,33,1,0,0,183,30,1,0,0,183,      59P     37
29,1,0,0,183,33,0,0;                                                  59P     38
508,2,0,183,18,0,0,0,183,17,0,0;                                      61P     39
508,2,0,183,31,1,0,0,183,32,1,0;                                      63P     40
508,2,0,183,10,1,0,0,183,11,1,0;                                      65P     41
508,2,0,183,34,0,0,0,183,35,0,0;                                      67P     42
508,6,0,183,34,1,0,0,183,36,1,0,0,183,37,0,0,0,183,38,0,0,0,183,      69P     43
36,0,0,0,183,35,1,0;                                                  69P     44
508,2,0,183,37,1,0,0,183,38,1,0;                                      71P     45
508,2,0,183,19,0,0,0,183,23,0,0;                                      73P     46
126,4,2,0,0,0,0,-3.14159265358979,-3.14159265358979,                  75P     47
-3.14159265358979,-1.5707963267949,-1.5707963267949,                  75P     48
-6.12323399573676D-17,-6.12323399573676D-17,                          75P     49
-6.12323399573676D-17,1.,0.707106781186547,1.,0.707106781186548,      75P     50
1.,-2.29621274840129D-15,12.5,-45.99,-12.5,12.5,-45.99,-12.5,         75P     51
-1.53080849893419D-15,-45.99,-12.5,-12.5,-45.99,                      75P     52
1.23259516440783D-31,-12.5,-45.99,-3.14159265358979,                  75P     53
-6.12323399573676D-17,0.,0.,0.;                                       75P     54
126,2,2,0,0,0,0,-6.12323399573676D-17,-6.12323399573676D-17,          77P     55
-6.12323399573676D-17,1.5707963267949,1.5707963267949,                77P     56
1.5707963267949,1.,0.707106781186548,1.,1.23259516440783D-31,         77P     57
-12.5,-45.99,12.5,-12.5,-45.99,12.5,0.,-45.99,                        77P     58
-6.12323399573676D-17,1.5707963267949,0.,0.,0.;                       77P     59
126,2,2,0,0,0,0,-3.14159265358979,-3.14159265358979,                  79P     60
-3.14159265358979,-1.5707963267949,-1.5707963267949,                  79P     61
-1.5707963267949,1.,0.707106781186547,1.,12.5,0.,-45.99,12.5,0.,      79P     62
-46.99,13.5,0.,-46.99,-3.14159265358979,-1.5707963267949,0.,0.,       79P     63
0.;                                                                   79P     64
126,6,2,0,0,0,0,-1.5707963267949,-1.5707963267949,                    81P     65
-1.5707963267949,0.,0.,1.5707963267949,1.5707963267949,               81P     66
3.14159265358979,3.14159265358979,3.14159265358979,1.,                81P     67
0.707106781186548,1.,0.707106781186548,1.,0.707106781186547,1.,       81P     68
13.5,0.,-46.99,13.5,-13.5,-46.99,8.26636589424463D-16,-13.5,          81P     69
-46.99,-13.5,-13.5,-46.99,-13.5,-1.65327317884893D-15,-46.99,         81P     70
-13.5,13.5,-46.99,-2.47990976827339D-15,13.5,-46.99,                  81P     71
-1.5707963267949,3.14159265358979,0.,0.,0.;                           81P     72
126,2,2,0,0,0,0,-3.14159265358979,-3.14159265358979,                  83P     73
-3.14159265358979,-1.5707963267949,-1.5707963267949,                  83P     74
-1.5707963267949,1.,0.707106781186547,1.,8.26636589424463D-16,        83P     75
13.5,-46.99,13.5,13.5,-46.99,13.5,0.,-46.99,-3.14159265358979,        83P     76
-1.5707963267949,0.,0.,0.;                                            83P     77
126,2,2,0,0,0,0,1.5707963267949,1.5707963267949,1.5707963267949,      85P     78
3.14159265358979,3.14159265358979,3.14159265358979,1.,                85P     79
0.707106781186547,1.,12.5,0.,-45.99,12.5,12.5,-45.99,                 85P     80
7.65404249467095D-16,12.5,-45.99,1.5707963267949,                     85P     81
3.14159265358979,0.,0.,0.;                                            85P     82
126,6,2,0,0,0,0,-3.14159265358979,-3.14159265358979,                  87P     83
-3.14159265358979,-1.5707963267949,-1.5707963267949,0.,0.,            87P     84
1.5707963267949,1.5707963267949,1.5707963267949,1.,                   87P     85
0.707106781186548,1.,0.707106781186548,1.,0.707106781186548,1.,       87P     86
-3.08243599345389D-15,16.78,-46.99,-16.78,16.78,-46.99,-16.78,        87P     87
-2.05495732896926D-15,-46.99,-16.78,-16.78,-46.99,                    87P     88
1.02747866448463D-15,-16.78,-46.99,16.78,-16.78,-46.99,16.78,0.,      87P     89
-46.99,-3.14159265358979,1.5707963267949,0.,0.,0.;                    87P     90
126,2,2,0,0,0,0,1.5707963267949,1.5707963267949,1.5707963267949,      89P     91
3.14159265358979,3.14159265358979,3.14159265358979,1.,                89P     92
0.707106781186548,1.,16.78,0.,-46.99,16.78,16.78,-46.99,              89P     93
1.02747866448463D-15,16.78,-46.99,1.5707963267949,                    89P     94
3.14159265358979,0.,0.,0.;                                            89P     95
126,1,1,0,0,1,0,0.,0.,0.0800000000000005,0.0800000000000005,1.,       91P     96
1.,0.,-12.5,-45.99,0.,-12.5,-44.99,0.,0.0800000000000005,0.,0.,       91P     97
0.;                                                                   91P     98
126,4,2,0,0,0,0,-1.5707963267949,-1.5707963267949,                    93P     99
-1.5707963267949,0.,0.,1.5707963267949,1.5707963267949,               93P    100
1.5707963267949,1.,0.707106781186548,1.,0.707106781186548,1.,         93P    101
7.65404249467095D-16,12.5,-44.99,12.5,12.5,-44.99,12.5,0.,            93P    102
-44.99,12.5,-12.5,-44.99,7.65404249467095D-16,-12.5,-44.99,           93P    103
-1.5707963267949,1.5707963267949,0.,0.,0.;                            93P    104
126,4,2,0,0,0,0,1.5707963267949,1.5707963267949,1.5707963267949,      95P    105
3.14159265358979,3.14159265358979,4.71238898038469,                   95P    106
4.71238898038469,4.71238898038469,1.,0.707106781186547,1.,            95P    107
0.707106781186548,1.,7.65404249467095D-16,-12.5,-44.99,-12.5,         95P    108
-12.5,-44.99,-12.5,-1.53080849893419D-15,-44.99,-12.5,12.5,           95P    109
-44.99,-2.29621274840128D-15,12.5,-44.99,1.5707963267949,             95P    110
4.71238898038469,0.,0.,0.;                                            95P    111
126,2,2,0,0,0,0,-1.5707963267949,-1.5707963267949,                    97P    112
-1.5707963267949,0.,0.,0.,1.,0.707106781186547,1.,16.78,0.,           97P    113
-46.99,17.78,0.,-46.99,17.78,0.,-45.99,-1.5707963267949,0.,0.,        97P    114
0.,0.;                                                                97P    115
126,2,2,0,0,0,0,-1.5707963267949,-1.5707963267949,                    99P    116
-1.5707963267949,6.12323399573677D-17,6.12323399573677D-17,           99P    117
6.12323399573677D-17,1.,0.707106781186548,1.,17.78,0.,-45.99,         99P    118
17.78,-17.78,-45.99,0.,-17.78,-45.99,-1.5707963267949,                99P    119
6.12323399573677D-17,0.,0.,0.;                                        99P    120
126,4,2,0,0,0,0,6.12323399573677D-17,6.12323399573677D-17,           101P    121
6.12323399573677D-17,1.5707963267949,1.5707963267949,                101P    122
3.14159265358979,3.14159265358979,3.14159265358979,1.,               101P    123
0.707106781186548,1.,0.707106781186548,1.,0.,-17.78,-45.99,          101P    124
-17.78,-17.78,-45.99,-17.78,-2.17742200888399D-15,-45.99,-17.78,     101P    125
17.78,-45.99,-3.26613301332599D-15,17.78,-45.99,                     101P    126
6.12323399573677D-17,3.14159265358979,0.,0.,0.;                      101P    127
126,2,2,0,0,0,0,-3.14159265358979,-3.14159265358979,                 103P    128
-3.14159265358979,-1.5707963267949,-1.5707963267949,                 103P    129
-1.5707963267949,1.,0.707106781186548,1.,1.088711004442D-15,         103P    130
17.78,-45.99,17.78,17.78,-45.99,17.78,0.,-45.99,                     103P    131
-3.14159265358979,-1.5707963267949,0.,0.,0.;                         103P    132
126,1,1,0,0,1,0,-1.08661417322835,-1.08661417322835,                 105P    133
1.14285714285714,1.14285714285714,1.,1.,0.,-17.78,-45.99,0.,         105P    134
-17.78,-6.35,-1.08661417322835,1.14285714285714,0.,0.,0.;            105P    135
126,4,2,0,0,0,0,1.5707963267949,1.5707963267949,1.5707963267949,     107P    136
3.14159265358979,3.14159265358979,4.71238898038469,                  107P    137
4.71238898038469,4.71238898038469,1.,0.707106781186548,1.,           107P    138
0.707106781186548,1.,1.088711004442D-15,-17.78,-6.35,-17.78,         107P    139
-17.78,-6.35,-17.78,-2.17742200888399D-15,-6.35,-17.78,17.78,        107P    140
-6.35,-3.26613301332599D-15,17.78,-6.35,1.5707963267949,             107P    141
4.71238898038469,0.,0.,0.;                                           107P    142
126,4,2,0,0,0,0,-1.5707963267949,-1.5707963267949,                   109P    143
-1.5707963267949,0.,0.,1.5707963267949,1.5707963267949,              109P    144
1.5707963267949,1.,0.707106781186548,1.,0.707106781186548,1.,        109P    145
1.088711004442D-15,17.78,-6.35,17.78,17.78,-6.35,17.78,0.,-6.35,     109P    146
17.78,-17.78,-6.35,1.088711004442D-15,-17.78,-6.35,                  109P    147
-1.5707963267949,1.5707963267949,0.,0.,0.;                           109P    148
126,4,2,0,0,0,0,-1.5707963267949,-1.5707963267949,                   111P    149
-1.5707963267949,0.,0.,1.5707963267949,1.5707963267949,              111P    150
1.5707963267949,1.,0.707106781186548,1.,0.707106781186548,1.,        111P    151
7.62342632469228D-16,12.45,-1.,12.45,12.45,-1.,12.45,0.,-1.,         111P    152
12.45,-12.45,-1.,7.62342632469228D-16,-12.45,-1.,                    111P    153
-1.5707963267949,1.5707963267949,0.,0.,0.;                           111P    154
126,1,1,0,0,1,0,-0.0401606425702811,-0.0401606425702811,             113P    155
0.0401606425702811,0.0401606425702811,1.,1.,0.,-12.45,-1.,0.,        113P    156
-12.45,0.,-0.0401606425702811,0.0401606425702811,0.,0.,0.;           113P    157
126,4,2,0,0,0,0,-1.5707963267949,-1.5707963267949,                   115P    158
-1.5707963267949,0.,0.,1.5707963267949,1.5707963267949,              115P    159
1.5707963267949,1.,0.707106781186548,1.,0.707106781186548,1.,        115P    160
7.62342632469228D-16,12.45,0.,12.45,12.45,0.,12.45,0.,0.,12.45,      115P    161
-12.45,0.,7.62342632469228D-16,-12.45,0.,-1.5707963267949,           115P    162
1.5707963267949,0.,0.,0.;                                            115P    163
126,4,2,0,0,0,0,1.5707963267949,1.5707963267949,1.5707963267949,     117P    164
3.14159265358979,3.14159265358979,4.71238898038469,                  117P    165
4.71238898038469,4.71238898038469,1.,0.707106781186548,1.,           117P    166
0.707106781186548,1.,7.62342632469228D-16,-12.45,0.,-12.45,          117P    167
-12.45,0.,-12.45,-1.52468526493846D-15,0.,-12.45,12.45,0.,           117P    168
-2.28702789740768D-15,12.45,0.,1.5707963267949,4.71238898038469,     117P    169
0.,0.,0.;                                                            117P    170
126,4,2,0,0,0,0,1.5707963267949,1.5707963267949,1.5707963267949,     119P    171
3.14159265358979,3.14159265358979,4.71238898038469,                  119P    172
4.71238898038469,4.71238898038469,1.,0.707106781186548,1.,           119P    173
0.707106781186548,1.,7.62342632469228D-16,-12.45,-1.,-12.45,         119P    174
-12.45,-1.,-12.45,-1.52468526493846D-15,-1.,-12.45,12.45,-1.,        119P    175
-2.28702789740768D-15,12.45,-1.,1.5707963267949,                     119P    176
4.71238898038469,0.,0.,0.;                                           119P    177
126,4,2,0,0,0,0,-1.5707963267949,-1.5707963267949,                   121P    178
-1.5707963267949,0.,0.,1.5707963267949,1.5707963267949,              121P    179
1.5707963267949,1.,0.707106781186547,1.,0.707106781186547,1.,        121P    180
9.10831056865844D-16,14.875,0.,14.875,14.875,0.,14.875,0.,0.,        121P    181
14.875,-14.875,0.,9.10831056865844D-16,-14.875,0.,                   121P    182
-1.5707963267949,1.5707963267949,0.,0.,0.;                           121P    183
126,4,2,0,0,0,0,1.5707963267949,1.5707963267949,1.5707963267949,     123P    184
3.14159265358979,3.14159265358979,4.71238898038469,                  123P    185
4.71238898038469,4.71238898038469,1.,0.707106781186548,1.,           123P    186
0.707106781186548,1.,9.10831056865844D-16,-14.875,0.,-14.875,        123P    187
-14.875,0.,-14.875,-1.82166211373169D-15,0.,-14.875,14.875,0.,       123P    188
-2.73249317059753D-15,14.875,0.,1.5707963267949,                     123P    189
4.71238898038469,0.,0.,0.;                                           123P    190
126,1,1,0,0,1,0,-0.554957983193277,-0.554957983193277,               125P    191
0.554957983193277,0.554957983193277,1.,1.,0.,-14.875,                125P    192
1.11022302462516D-15,0.,-14.875,16.51,-0.554957983193277,            125P    193
0.554957983193277,0.,0.,0.;                                          125P    194
126,4,2,0,0,0,0,-1.5707963267949,-1.5707963267949,                   127P    195
-1.5707963267949,0.,0.,1.5707963267949,1.5707963267949,              127P    196
1.5707963267949,1.,0.707106781186547,1.,0.707106781186547,1.,        127P    197
9.10831056865844D-16,14.875,16.51,14.875,14.875,16.51,14.875,0.,     127P    198
16.51,14.875,-14.875,16.51,9.10831056865844D-16,-14.875,16.51,       127P    199
-1.5707963267949,1.5707963267949,0.,0.,0.;                           127P    200
126,4,2,0,0,0,0,1.5707963267949,1.5707963267949,1.5707963267949,     129P    201
3.14159265358979,3.14159265358979,4.71238898038469,                  129P    202
4.71238898038469,4.71238898038469,1.,0.707106781186548,1.,           129P    203
0.707106781186548,1.,9.10831056865844D-16,-14.875,16.51,-14.875,     129P    204
-14.875,16.51,-14.875,-1.82166211373169D-15,16.51,-14.875,           129P    205
14.875,16.51,-2.73249317059753D-15,14.875,16.51,1.5707963267949,     129P    206
4.71238898038469,0.,0.,0.;                                           129P    207
126,4,2,0,0,0,0,-1.5707963267949,-1.5707963267949,                   131P    208
-1.5707963267949,0.,0.,1.5707963267949,1.5707963267949,              131P    209
1.5707963267949,1.,0.707106781186548,1.,0.707106781186548,1.,        131P    210
9.72063396823211D-16,15.875,16.51,15.875,15.875,16.51,15.875,0.,     131P    211
16.51,15.875,-15.875,16.51,9.72063396823211D-16,-15.875,16.51,       131P    212
-1.5707963267949,1.5707963267949,0.,0.,0.;                           131P    213
126,4,2,0,0,0,0,1.5707963267949,1.5707963267949,1.5707963267949,     133P    214
3.14159265358979,3.14159265358979,4.71238898038469,                  133P    215
4.71238898038469,4.71238898038469,1.,0.707106781186548,1.,           133P    216
0.707106781186548,1.,9.72063396823211D-16,-15.875,16.51,-15.875,     133P    217
-15.875,16.51,-15.875,-1.94412679364642D-15,16.51,-15.875,           133P    218
15.875,16.51,-2.91619019046963D-15,15.875,16.51,1.5707963267949,     133P    219
4.71238898038469,0.,0.,0.;                                           133P    220
126,4,2,0,0,0,0,-1.5707963267949,-1.5707963267949,                   135P    221
-1.5707963267949,0.,0.,1.5707963267949,1.5707963267949,              135P    222
1.5707963267949,1.,0.707106781186548,1.,0.707106781186548,1.,        135P    223
9.72063396823211D-16,15.875,-6.35,15.875,15.875,-6.35,15.875,0.,     135P    224
-6.35,15.875,-15.875,-6.35,9.72063396823211D-16,-15.875,-6.35,       135P    225
-1.5707963267949,1.5707963267949,0.,0.,0.;                           135P    226
126,4,2,0,0,0,0,1.5707963267949,1.5707963267949,1.5707963267949,     137P    227
3.14159265358979,3.14159265358979,4.71238898038469,                  137P    228
4.71238898038469,4.71238898038469,1.,0.707106781186548,1.,           137P    229
0.707106781186548,1.,9.72063396823211D-16,-15.875,-6.35,-15.875,     137P    230
-15.875,-6.35,-15.875,-1.94412679364642D-15,-6.35,-15.875,           137P    231
15.875,-6.35,-2.91619019046963D-15,15.875,-6.35,1.5707963267949,     137P    232
4.71238898038469,0.,0.,0.;                                           137P    233
126,1,1,0,0,1,0,-0.72,-0.72,0.72,0.72,1.,1.,0.,-15.875,-6.35,0.,     139P    234
-15.875,16.51,-0.72,0.72,0.,0.,0.;                                   139P    235
126,4,2,0,0,0,0,-1.5707963267949,-1.5707963267949,                   141P    236
-1.5707963267949,0.,0.,1.5707963267949,1.5707963267949,              141P    237
1.5707963267949,1.,0.707106781186547,1.,0.707106781186547,1.,        141P    238
9.10831056865844D-16,14.875,-6.35,14.875,14.875,-6.35,14.875,0.,     141P    239
-6.35,14.875,-14.875,-6.35,9.10831056865844D-16,-14.875,-6.35,       141P    240
-1.5707963267949,1.5707963267949,0.,0.,0.;                           141P    241
126,4,2,0,0,0,0,1.5707963267949,1.5707963267949,1.5707963267949,     143P    242
3.14159265358979,3.14159265358979,4.71238898038469,                  143P    243
4.71238898038469,4.71238898038469,1.,0.707106781186548,1.,           143P    244
0.707106781186548,1.,9.10831056865844D-16,-14.875,-6.35,-14.875,     143P    245
-14.875,-6.35,-14.875,-1.82166211373169D-15,-6.35,-14.875,           143P    246
14.875,-6.35,-2.73249317059753D-15,14.875,-6.35,1.5707963267949,     143P    247
4.71238898038469,0.,0.,0.;                                           143P    248
126,1,1,0,0,1,0,-0.179831932773109,-0.179831932773109,               145P    249
0.179831932773109,0.179831932773109,1.,1.,0.,-14.875,-6.35,0.,       145P    250
-14.875,-1.,-0.179831932773109,0.179831932773109,0.,0.,0.;           145P    251
126,4,2,0,0,0,0,-1.5707963267949,-1.5707963267949,                   147P    252
-1.5707963267949,0.,0.,1.5707963267949,1.5707963267949,              147P    253
1.5707963267949,1.,0.707106781186547,1.,0.707106781186547,1.,        147P    254
9.10831056865844D-16,14.875,-1.,14.875,14.875,-1.,14.875,0.,-1.,     147P    255
14.875,-14.875,-1.,9.10831056865844D-16,-14.875,-1.,                 147P    256
-1.5707963267949,1.5707963267949,0.,0.,0.;                           147P    257
126,4,2,0,0,0,0,1.5707963267949,1.5707963267949,1.5707963267949,     149P    258
3.14159265358979,3.14159265358979,4.71238898038469,                  149P    259
4.71238898038469,4.71238898038469,1.,0.707106781186548,1.,           149P    260
0.707106781186548,1.,9.10831056865844D-16,-14.875,-1.,-14.875,       149P    261
-14.875,-1.,-14.875,-1.82166211373169D-15,-1.,-14.875,14.875,        149P    262
-1.,-2.73249317059753D-15,14.875,-1.,1.5707963267949,                149P    263
4.71238898038469,0.,0.,0.;                                           149P    264
128,2,8,2,2,0,1,0,0,1,1.5707963267949,1.5707963267949,               151P    265
1.5707963267949,3.14159265358979,3.14159265358979,                   151P    266
3.14159265358979,-3.14159265358979,-3.14159265358979,                151P    267
-3.14159265358979,-1.5707963267949,-1.5707963267949,0.,0.,           151P    268
1.5707963267949,1.5707963267949,3.14159265358979,                    151P    269
3.14159265358979,3.14159265358979,1.,0.707106781186547,1.,           151P    270
0.707106781186548,0.5,0.707106781186548,1.,0.707106781186547,1.,     151P    271
0.707106781186548,0.5,0.707106781186548,1.,0.707106781186547,1.,     151P    272
0.707106781186548,0.5,0.707106781186548,1.,0.707106781186547,1.,     151P    273
0.707106781186548,0.5,0.707106781186548,1.,0.707106781186547,1.,     151P    274
12.5,0.,-45.99,12.5,0.,-46.99,13.5,0.,-46.99,12.5,-12.5,-45.99,      151P    275
12.5,-12.5,-46.99,13.5,-13.5,-46.99,0.,-12.5,-45.99,0.,-12.5,        151P    276
-46.99,0.,-13.5,-46.99,-12.5,-12.5,-45.99,-12.5,-12.5,-46.99,        151P    277
-13.5,-13.5,-46.99,-12.5,0.,-45.99,-12.5,0.,-46.99,-13.5,0.,         151P    278
-46.99,-12.5,12.5,-45.99,-12.5,12.5,-46.99,-13.5,13.5,-46.99,0.,     151P    279
12.5,-45.99,0.,12.5,-46.99,0.,13.5,-46.99,12.5,12.5,-45.99,12.5,     151P    280
12.5,-46.99,13.5,13.5,-46.99,12.5,0.,-45.99,12.5,0.,-46.99,13.5,     151P    281
0.,-46.99,1.5707963267949,3.14159265358979,-3.14159265358979,        151P    282
3.14159265358979;                                                    151P    283
128,1,1,1,1,0,0,1,0,0,-1.679,-1.679,1.679,1.679,-2.929,-2.929,       153P    284
0.429000000000001,0.429000000000001,1.,1.,1.,1.,16.79,-16.79,        153P    285
-46.99,-16.79,-16.79,-46.99,16.79,16.79,-46.99,-16.79,16.79,         153P    286
-46.99,-1.679,1.679,-2.929,0.429000000000001;                        153P    287
128,1,8,1,2,0,1,0,0,1,-0.0800000000000005,-0.0800000000000005,       155P    288
0.,0.,-3.14159265358979,-3.14159265358979,-3.14159265358979,         155P    289
-1.5707963267949,-1.5707963267949,0.,0.,1.5707963267949,             155P    290
1.5707963267949,3.14159265358979,3.14159265358979,                   155P    291
3.14159265358979,1.,1.,0.707106781186548,0.707106781186548,1.,       155P    292
1.,0.707106781186548,0.707106781186548,1.,1.,0.707106781186548,      155P    293
0.707106781186548,1.,1.,0.707106781186548,0.707106781186548,1.,      155P    294
1.,0.,-12.5,-44.99,0.,-12.5,-45.99,-12.5,-12.5,-44.99,-12.5,         155P    295
-12.5,-45.99,-12.5,0.,-44.99,-12.5,0.,-45.99,-12.5,12.5,-44.99,      155P    296
-12.5,12.5,-45.99,0.,12.5,-44.99,0.,12.5,-45.99,12.5,12.5,           155P    297
-44.99,12.5,12.5,-45.99,12.5,0.,-44.99,12.5,0.,-45.99,12.5,          155P    298
-12.5,-44.99,12.5,-12.5,-45.99,0.,-12.5,-44.99,0.,-12.5,-45.99,      155P    299
-0.0800000000000005,0.,-3.14159265358979,3.14159265358979;           155P    300
128,2,8,2,2,0,1,0,0,1,0.,0.,0.,1.5707963267949,1.5707963267949,      157P    301
1.5707963267949,-3.14159265358979,-3.14159265358979,                 157P    302
-3.14159265358979,-1.5707963267949,-1.5707963267949,0.,0.,           157P    303
1.5707963267949,1.5707963267949,3.14159265358979,                    157P    304
3.14159265358979,3.14159265358979,1.,0.707106781186547,1.,           157P    305
0.707106781186548,0.5,0.707106781186548,1.,0.707106781186547,1.,     157P    306
0.707106781186548,0.5,0.707106781186548,1.,0.707106781186547,1.,     157P    307
0.707106781186548,0.5,0.707106781186548,1.,0.707106781186547,1.,     157P    308
0.707106781186548,0.5,0.707106781186548,1.,0.707106781186547,1.,     157P    309
16.78,0.,-46.99,17.78,0.,-46.99,17.78,0.,-45.99,16.78,-16.78,        157P    310
-46.99,17.78,-17.78,-46.99,17.78,-17.78,-45.99,0.,-16.78,-46.99,     157P    311
0.,-17.78,-46.99,0.,-17.78,-45.99,-16.78,-16.78,-46.99,-17.78,       157P    312
-17.78,-46.99,-17.78,-17.78,-45.99,-16.78,0.,-46.99,-17.78,0.,       157P    313
-46.99,-17.78,0.,-45.99,-16.78,16.78,-46.99,-17.78,17.78,-46.99,     157P    314
-17.78,17.78,-45.99,0.,16.78,-46.99,0.,17.78,-46.99,0.,17.78,        157P    315
-45.99,16.78,16.78,-46.99,17.78,17.78,-46.99,17.78,17.78,-45.99,     157P    316
16.78,0.,-46.99,17.78,0.,-46.99,17.78,0.,-45.99,0.,                  157P    317
1.5707963267949,-3.14159265358979,3.14159265358979;                  157P    318
128,1,8,1,2,0,1,0,0,1,-1.14285714285714,-1.14285714285714,           159P    319
1.08661417322835,1.08661417322835,-3.14159265358979,                 159P    320
-3.14159265358979,-3.14159265358979,-1.5707963267949,                159P    321
-1.5707963267949,0.,0.,1.5707963267949,1.5707963267949,              159P    322
3.14159265358979,3.14159265358979,3.14159265358979,1.,1.,            159P    323
0.707106781186548,0.707106781186548,1.,1.,0.707106781186548,         159P    324
0.707106781186548,1.,1.,0.707106781186548,0.707106781186548,1.,      159P    325
1.,0.707106781186548,0.707106781186548,1.,1.,0.,-17.78,-45.99,       159P    326
0.,-17.78,-6.35,-17.78,-17.78,-45.99,-17.78,-17.78,-6.35,-17.78,     159P    327
0.,-45.99,-17.78,0.,-6.35,-17.78,17.78,-45.99,-17.78,17.78,          159P    328
-6.35,0.,17.78,-45.99,0.,17.78,-6.35,17.78,17.78,-45.99,17.78,       159P    329
17.78,-6.35,17.78,0.,-45.99,17.78,0.,-6.35,17.78,-17.78,-45.99,      159P    330
17.78,-17.78,-6.35,0.,-17.78,-45.99,0.,-17.78,-6.35,                 159P    331
-1.14285714285714,1.08661417322835,-3.14159265358979,                159P    332
3.14159265358979;                                                    159P    333
128,1,8,1,2,0,1,0,0,1,-0.0401606425702811,-0.0401606425702811,       161P    334
0.0401606425702811,0.0401606425702811,-3.14159265358979,             161P    335
-3.14159265358979,-3.14159265358979,-1.5707963267949,                161P    336
-1.5707963267949,0.,0.,1.5707963267949,1.5707963267949,              161P    337
3.14159265358979,3.14159265358979,3.14159265358979,1.,1.,            161P    338
0.707106781186548,0.707106781186548,1.,1.,0.707106781186548,         161P    339
0.707106781186548,1.,1.,0.707106781186548,0.707106781186548,1.,      161P    340
1.,0.707106781186548,0.707106781186548,1.,1.,0.,-12.45,0.,0.,        161P    341
-12.45,-1.,-12.45,-12.45,0.,-12.45,-12.45,-1.,-12.45,0.,0.,          161P    342
-12.45,0.,-1.,-12.45,12.45,0.,-12.45,12.45,-1.,0.,12.45,0.,0.,       161P    343
12.45,-1.,12.45,12.45,0.,12.45,12.45,-1.,12.45,0.,0.,12.45,0.,       161P    344
-1.,12.45,-12.45,0.,12.45,-12.45,-1.,0.,-12.45,0.,0.,-12.45,-1.,     161P    345
-0.0401606425702811,0.0401606425702811,-3.14159265358979,            161P    346
3.14159265358979;                                                    161P    347
128,1,1,1,1,0,0,1,0,0,-1.4885,-1.4885,1.4885,1.4885,-2.976,          163P    348
-2.976,0.001,0.001,1.,1.,1.,1.,-14.885,-14.885,0.,14.885,            163P    349
-14.885,0.,-14.885,14.885,0.,14.885,14.885,0.,-1.4885,1.4885,        163P    350
-2.976,0.001;                                                        163P    351
128,1,8,1,2,0,1,0,0,1,-0.554957983193277,-0.554957983193277,         165P    352
0.554957983193277,0.554957983193277,-3.14159265358979,               165P    353
-3.14159265358979,-3.14159265358979,-1.5707963267949,                165P    354
-1.5707963267949,0.,0.,1.5707963267949,1.5707963267949,              165P    355
3.14159265358979,3.14159265358979,3.14159265358979,1.,1.,            165P    356
0.707106781186548,0.707106781186548,1.,1.,0.707106781186548,         165P    357
0.707106781186548,1.,1.,0.707106781186548,0.707106781186548,1.,      165P    358
1.,0.707106781186548,0.707106781186548,1.,1.,0.,-14.875,16.51,       165P    359
0.,-14.875,1.11022302462516D-15,-14.875,-14.875,16.51,-14.875,       165P    360
-14.875,1.11022302462516D-15,-14.875,0.,16.51,-14.875,0.,            165P    361
1.11022302462516D-15,-14.875,14.875,16.51,-14.875,14.875,            165P    362
1.11022302462516D-15,0.,14.875,16.51,0.,14.875,                      165P    363
1.11022302462516D-15,14.875,14.875,16.51,14.875,14.875,              165P    364
1.11022302462516D-15,14.875,0.,16.51,14.875,0.,                      165P    365
1.11022302462516D-15,14.875,-14.875,16.51,14.875,-14.875,            165P    366
1.11022302462516D-15,0.,-14.875,16.51,0.,-14.875,                    165P    367
1.11022302462516D-15,-0.554957983193277,0.554957983193277,           165P    368
-3.14159265358979,3.14159265358979;                                  165P    369
128,1,1,1,1,0,0,1,0,0,-1.5885,-1.5885,1.5885,1.5885,-3.176,          167P    370
-3.176,0.001,0.001,1.,1.,1.,1.,-15.885,-15.885,16.51,15.885,         167P    371
-15.885,16.51,-15.885,15.885,16.51,15.885,15.885,16.51,-1.5885,      167P    372
1.5885,-3.176,0.001;                                                 167P    373
128,1,8,1,2,0,1,0,0,1,-0.72,-0.72,0.72,0.72,-3.14159265358979,       169P    374
-3.14159265358979,-3.14159265358979,-1.5707963267949,                169P    375
-1.5707963267949,0.,0.,1.5707963267949,1.5707963267949,              169P    376
3.14159265358979,3.14159265358979,3.14159265358979,1.,1.,            169P    377
0.707106781186548,0.707106781186548,1.,1.,0.707106781186548,         169P    378
0.707106781186548,1.,1.,0.707106781186548,0.707106781186548,1.,      169P    379
1.,0.707106781186548,0.707106781186548,1.,1.,0.,-15.875,-6.35,       169P    380
0.,-15.875,16.51,-15.875,-15.875,-6.35,-15.875,-15.875,16.51,        169P    381
-15.875,0.,-6.35,-15.875,0.,16.51,-15.875,15.875,-6.35,-15.875,      169P    382
15.875,16.51,0.,15.875,-6.35,0.,15.875,16.51,15.875,15.875,          169P    383
-6.35,15.875,15.875,16.51,15.875,0.,-6.35,15.875,0.,16.51,           169P    384
15.875,-15.875,-6.35,15.875,-15.875,16.51,0.,-15.875,-6.35,0.,       169P    385
-15.875,16.51,-0.72,0.72,-3.14159265358979,3.14159265358979;         169P    386
128,1,1,1,1,0,0,1,0,0,-1.779,-1.779,1.779,1.779,-3.557,-3.557,       171P    387
0.001,0.001,1.,1.,1.,1.,-17.79,-17.79,-6.35,17.79,-17.79,-6.35,      171P    388
-17.79,17.79,-6.35,17.79,17.79,-6.35,-1.779,1.779,-3.557,0.001;      171P    389
128,1,1,1,1,0,0,1,0,0,-1.251,-1.251,1.251,1.251,-1.251,-1.251,       173P    390
1.251,1.251,1.,1.,1.,1.,12.51,-12.51,-44.99,-12.51,-12.51,           173P    391
-44.99,12.51,12.51,-44.99,-12.51,12.51,-44.99,-1.251,1.251,          173P    392
-1.251,1.251;                                                        173P    393
128,1,1,1,1,0,0,1,0,0,-1.4885,-1.4885,1.4885,1.4885,-2.976,          175P    394
-2.976,0.001,0.001,1.,1.,1.,1.,-14.885,-14.885,-6.35,14.885,         175P    395
-14.885,-6.35,-14.885,14.885,-6.35,14.885,14.885,-6.35,-1.4885,      175P    396
1.4885,-2.976,0.001;                                                 175P    397
128,1,8,1,2,0,1,0,0,1,-0.179831932773109,-0.179831932773109,         177P    398
0.179831932773109,0.179831932773109,-3.14159265358979,               177P    399
-3.14159265358979,-3.14159265358979,-1.5707963267949,                177P    400
-1.5707963267949,0.,0.,1.5707963267949,1.5707963267949,              177P    401
3.14159265358979,3.14159265358979,3.14159265358979,1.,1.,            177P    402
0.707106781186548,0.707106781186548,1.,1.,0.707106781186548,         177P    403
0.707106781186548,1.,1.,0.707106781186548,0.707106781186548,1.,      177P    404
1.,0.707106781186548,0.707106781186548,1.,1.,0.,-14.875,-1.,0.,      177P    405
-14.875,-6.35,-14.875,-14.875,-1.,-14.875,-14.875,-6.35,-14.875,     177P    406
0.,-1.,-14.875,0.,-6.35,-14.875,14.875,-1.,-14.875,14.875,-6.35,     177P    407
0.,14.875,-1.,0.,14.875,-6.35,14.875,14.875,-1.,14.875,14.875,       177P    408
-6.35,14.875,0.,-1.,14.875,0.,-6.35,14.875,-14.875,-1.,14.875,       177P    409
-14.875,-6.35,0.,-14.875,-1.,0.,-14.875,-6.35,                       177P    410
-0.179831932773109,0.179831932773109,-3.14159265358979,              177P    411
3.14159265358979;                                                    177P    412
128,1,1,1,1,0,0,1,0,0,-1.4885,-1.4885,1.4885,1.4885,-2.7335,         179P    413
-2.7335,0.243499999999999,0.243499999999999,1.,1.,1.,1.,14.885,      179P    414
-14.885,-1.,-14.885,-14.885,-1.,14.885,14.885,-1.,-14.885,           179P    415
14.885,-1.,-1.4885,1.4885,-2.7335,0.243499999999999;                 179P    416
502,30,-2.29621274840129D-15,12.5,-45.99,0.,-12.5,-45.99,12.5,       181P    417
0.,-45.99,13.5,0.,-46.99,8.26636589424463D-16,13.5,-46.99,           181P    418
-3.08243599345389D-15,16.78,-46.99,16.78,0.,-46.99,0.,-12.5,         181P    419
-44.99,0.,12.5,-44.99,17.78,0.,-45.99,0.,-17.78,-45.99,              181P    420
1.088711004442D-15,17.78,-45.99,0.,-17.78,-6.35,0.,17.78,-6.35,      181P    421
0.,12.45,-1.,0.,-12.45,-1.,0.,-12.45,0.,0.,12.45,0.,0.,14.875,       181P    422
0.,0.,-14.875,1.11022302462516D-15,0.,-14.875,16.51,0.,14.875,       181P    423
16.51,0.,15.875,16.51,0.,-15.875,16.51,0.,15.875,-6.35,0.,           181P    424
-15.875,-6.35,0.,14.875,-6.35,0.,-14.875,-6.35,0.,-14.875,-1.,       181P    425
0.,14.875,-1.;                                                       181P    426
504,38,75,181,1,181,2,77,181,2,181,3,79,181,3,181,4,81,181,4,        183P    427
181,5,83,181,5,181,4,85,181,3,181,1,87,181,6,181,7,89,181,7,181,     183P    428
6,91,181,2,181,8,93,181,9,181,8,95,181,8,181,9,97,181,7,181,10,      183P    429
99,181,10,181,11,101,181,11,181,12,103,181,12,181,10,105,181,11,     183P    430
181,13,107,181,13,181,14,109,181,14,181,13,111,181,15,181,16,        183P    431
113,181,16,181,17,115,181,18,181,17,117,181,17,181,18,119,181,       183P    432
16,181,15,121,181,19,181,20,123,181,20,181,19,125,181,20,181,21,     183P    433
127,181,22,181,21,129,181,21,181,22,131,181,23,181,24,133,181,       183P    434
24,181,23,135,181,25,181,26,137,181,26,181,25,139,181,26,181,24,     183P    435
141,181,27,181,28,143,181,28,181,27,145,181,28,181,29,147,181,       183P    436
30,181,29,149,181,29,181,30;                                         183P    437
406,1,5HBody1;                                                       185P    438
314,92.156862745098,26.6666666666667,17.2549019607843,24HPlastic     187P    439
 - Matte (TD Red);                                                   187P    440
314,9.80392156862745,9.80392156862745,9.80392156862745,19HPowder     189P    441
 Coat (Black);                                                       189P    442
314,62.7450980392157,62.7450980392157,62.7450980392157,13HSteel      191P    443
- Satin;                                                             191P    444
314,89.8039215686275,89.8039215686275,89.8039215686275,18HGemsto     193P    445
ne - Crystal;                                                        193P    446
S      1G      3D    194P    446                                        T      1
